<svg xmlns="http://www.w3.org/2000/svg" viewBox="0 0 540 340" width="540" height="340">
  <defs>
    <linearGradient id="bg2" x1="0" y1="0" x2="1" y2="1">
      <stop offset="0" stop-color="#1F2328"/>
      <stop offset="1" stop-color="#0F1114"/>
    </linearGradient>
  </defs>
  <rect width="540" height="340" rx="18" fill="url(#bg2)"/>
  <rect x="0" y="50" width="540" height="58" fill="#000"/>
  <rect x="0" y="50" width="540" height="58" fill="url(#stripes)"/>
  <defs>
    <pattern id="stripes" width="6" height="58" patternUnits="userSpaceOnUse">
      <rect width="3" height="58" fill="rgba(255,255,255,0.04)"/>
    </pattern>
  </defs>
  <text x="36" y="150" font-family="Inter, sans-serif" font-size="11" fill="#A0A5AD" letter-spacing="3">AUTHORIZED SIGNATURE</text>
  <rect x="36" y="160" width="280" height="50" rx="4" fill="#0F1114" stroke="rgba(255,255,255,0.06)"/>
  <path d="M50 195 Q80 175 110 190 T180 188 T260 195" fill="none" stroke="#EFF1F3" stroke-width="1.5" opacity="0.7"/>
  <text x="36" y="240" font-family="Inter, sans-serif" font-size="11" fill="#A0A5AD" letter-spacing="3">SECURITY CODE</text>
  <text x="36" y="262" font-family="monospace" font-size="18" font-weight="600" fill="#EFF1F3" letter-spacing="2">9XQ-4471-AU</text>
  <rect x="370" y="150" width="130" height="130" rx="6" fill="#0F1114" stroke="rgba(255,255,255,0.06)"/>
  <g transform="translate(380,160)" fill="#EFF1F3">
    <rect x="0" y="0" width="20" height="20"/>
    <rect x="30" y="0" width="10" height="10"/>
    <rect x="50" y="0" width="20" height="20"/>
    <rect x="80" y="0" width="20" height="20"/>
    <rect x="0" y="30" width="10" height="10"/>
    <rect x="20" y="30" width="20" height="20"/>
    <rect x="60" y="30" width="10" height="10"/>
    <rect x="90" y="30" width="20" height="10"/>
    <rect x="0" y="60" width="20" height="20"/>
    <rect x="40" y="60" width="10" height="20"/>
    <rect x="60" y="60" width="20" height="10"/>
    <rect x="90" y="60" width="20" height="20"/>
    <rect x="0" y="90" width="10" height="20"/>
    <rect x="30" y="90" width="20" height="10"/>
    <rect x="70" y="90" width="20" height="20"/>
  </g>
  <text x="36" y="310" font-family="Inter, sans-serif" font-size="9" fill="#A0A5AD" letter-spacing="3">CORPORATE USE ONLY · ISO 27001 COMPLIANT</text>
</svg>
