<svg xmlns="http://www.w3.org/2000/svg" viewBox="0 0 540 340" width="540" height="340">
  <defs>
    <linearGradient id="bg1" x1="0" y1="0" x2="1" y2="1">
      <stop offset="0" stop-color="#1F2328"/>
      <stop offset="1" stop-color="#0F1114"/>
    </linearGradient>
    <pattern id="grid1" width="20" height="20" patternUnits="userSpaceOnUse">
      <path d="M20 0 L0 0 0 20" fill="none" stroke="rgba(255,255,255,0.03)" stroke-width="1"/>
    </pattern>
  </defs>
  <rect width="540" height="340" rx="18" fill="url(#bg1)"/>
  <rect width="540" height="340" rx="18" fill="url(#grid1)"/>
  <rect x="20" y="20" width="500" height="300" rx="14" fill="none" stroke="rgba(255,255,255,0.06)"/>
  <text x="36" y="58" font-family="Inter, sans-serif" font-size="22" font-weight="700" fill="#EFF1F3" letter-spacing="2">SECURETRACE</text>
  <text x="36" y="80" font-family="Inter, sans-serif" font-size="11" fill="#A0A5AD" letter-spacing="3">DRIVER IDENTIFICATION CARD</text>
  <rect x="36" y="110" width="120" height="150" rx="8" fill="#0F1114" stroke="rgba(255,255,255,0.08)"/>
  <circle cx="96" cy="170" r="36" fill="#1F2328"/>
  <path d="M70 220 Q96 200 122 220 L122 250 L70 250 Z" fill="#1F2328"/>
  <text x="180" y="135" font-family="Inter, sans-serif" font-size="10" fill="#A0A5AD" letter-spacing="2">NAME</text>
  <text x="180" y="155" font-family="Inter, sans-serif" font-size="16" font-weight="600" fill="#EFF1F3">ABEBE BEKELE</text>
  <text x="180" y="185" font-family="Inter, sans-serif" font-size="10" fill="#A0A5AD" letter-spacing="2">ID NUMBER</text>
  <text x="180" y="205" font-family="Inter, sans-serif" font-size="16" font-weight="600" fill="#EFF1F3" font-family="monospace">AU-Y0312J9</text>
  <text x="180" y="235" font-family="Inter, sans-serif" font-size="10" fill="#A0A5AD" letter-spacing="2">CLEARANCE</text>
  <text x="180" y="255" font-family="Inter, sans-serif" font-size="14" font-weight="600" fill="#D97A0C">LEVEL 3 — LOGISTICS</text>
  <text x="36" y="295" font-family="Inter, sans-serif" font-size="9" fill="#A0A5AD" letter-spacing="2">ISSUED: 2026.04.18  ·  EXPIRES: 2028.04.18</text>
</svg>
